<?xml version="1.0" standalone="no"?>
<!DOCTYPE svg PUBLIC "-//W3C//DTD SVG 20010904//EN"
 "http://www.w3.org/TR/2001/REC-SVG-20010904/DTD/svg10.dtd">
<svg version="1.0" xmlns="http://www.w3.org/2000/svg"
 width="1128.000000pt" height="1128.000000pt" viewBox="0 0 1128.000000 1128.000000"
 preserveAspectRatio="xMidYMid meet">
<metadata>
Created by potrace 1.14, written by Peter Selinger 2001-2017
</metadata>
<g transform="translate(0.000000,1128.000000) scale(0.100000,-0.100000)"
fill="#000000" stroke="none">
<path d="M0 5635 l0 -5635 5635 0 5635 0 0 5635 0 5635 -5635 0 -5635 0 0
-5635z m10797 2408 c-2 -2110 -6 -2784 -15 -2868 -69 -608 -191 -1087 -403
-1580 -422 -979 -1165 -1829 -2081 -2378 -1174 -706 -2576 -913 -3918 -581
-650 161 -1307 476 -1848 886 -372 282 -748 660 -1025 1030 -405 543 -711
1188 -870 1833 -110 445 -151 796 -150 1270 1 828 166 1535 529 2265 260 523
548 931 939 1328 904 922 2112 1472 3380 1541 83 4 1346 9 2808 10 l2658 1 -4
-2757z"/>
<path d="M5430 7350 c-798 -109 -1409 -731 -1500 -1525 -44 -390 59 -809 279
-1137 262 -389 649 -646 1112 -740 97 -19 144 -23 319 -23 232 0 341 17 538
81 551 179 989 647 1131 1209 78 310 66 656 -35 963 -168 514 -577 923 -1094
1095 -174 58 -300 79 -505 82 -99 2 -209 0 -245 -5z"/>
</g>
</svg>
